<svg width="17" height="17" viewBox="0 0 17 17" fill="none" xmlns="http://www.w3.org/2000/svg">
<g id="Iconly/Light/Chat">
<g id="Chat">
<path id="Stroke 4" fill-rule="evenodd" clip-rule="evenodd" d="M13.509 13.5079C11.3442 15.6729 8.13867 16.1407 5.51546 14.9275C5.12821 14.7716 4.81072 14.6456 4.50889 14.6456C3.66818 14.6506 2.62174 15.4657 2.07788 14.9225C1.53402 14.3786 2.34981 13.3313 2.34981 12.4856C2.34981 12.1837 2.22879 11.8719 2.07289 11.4839C0.85917 8.86107 1.32758 5.65449 3.49235 3.49019C6.2558 0.725721 10.7455 0.725721 13.509 3.48947C16.2774 6.25821 16.2724 10.7441 13.509 13.5079Z" stroke="#8791AD" stroke-linecap="round" stroke-linejoin="round"/>
<path id="Stroke 11" d="M11.2904 8.79289H11.2968" stroke="#8791AD" stroke-width="2" stroke-linecap="round" stroke-linejoin="round"/>
<path id="Stroke 13" d="M8.45083 8.79289H8.45721" stroke="#8791AD" stroke-width="2" stroke-linecap="round" stroke-linejoin="round"/>
<path id="Stroke 15" d="M5.61099 8.79289H5.61736" stroke="#8791AD" stroke-width="2" stroke-linecap="round" stroke-linejoin="round"/>
</g>
</g>
</svg>
